# xmcd
#
# Track frame offsets:
#  150
#  10465
#  31331
#  50938
#  63952
#  74837
#  81570
#  90465
#  101104
#  113022
#  124412
#  140085
#  152298
#  161936
#  172033
#  182378
#  200126
#  213024
#  227819
#  237316
#
# Disc length: 3348 seconds
#
# Revision: 0
# Processed by: cddbd v1.4PL0 Copyright (c) Steve Scherf et al.
# Submitted via: AltoMP3_Maker 3.0
#
DISCID=280d1214
DTITLE=Various Artist - Country Gospel - Wings Of A Dove
DYEAR=1900
DGENRE=
TTITLE0=Wings Of A Dove
TTITLE1=This Old House
TTITLE2=Learning To Learn
TTITLE3=Down By The Riverside
TTITLE4=Bel Shazah
TTITLE5=L'll Be Somewhere Listening
TTITLE6=A Wonderful Time Up There
TTITLE7=A Cup Of Loneliness
TTITLE8=Big Man
TTITLE9=When I Lay My Burdens Down
TTITLE10=This Train Is Bound For Glory
TTITLE11=How Great Thou Art
TTITLE12=Where Could I Go
TTITLE13=Walk Through This World With Me
TTITLE14=Swing Low Sweet Chariot
TTITLE15=Will The Circle Be Unbroken
TTITLE16=Life's Railway To Heaven
TTITLE17=Why Me Lord
TTITLE18=I Saw The Light
TTITLE19=Let Me Walk Lord By Your Side
EXTD=
EXTT0=
EXTT1=
EXTT2=
EXTT3=
EXTT4=
EXTT5=
EXTT6=
EXTT7=
EXTT8=
EXTT9=
EXTT10=
EXTT11=
EXTT12=
EXTT13=
EXTT14=
EXTT15=
EXTT16=
EXTT17=
EXTT18=
EXTT19=
PLAYORDER=
